<svg width="139" height="50" viewBox="0 0 139 50" fill="none" xmlns="http://www.w3.org/2000/svg">
<path d="M0.100098 48.9218C0.100098 48.8769 0.25733 48.248 0.571796 47.035C0.886261 45.7772 1.1558 44.4519 1.38042 43.0593C1.60504 41.6217 1.71735 40.274 1.71735 39.0162L1.71735 10.8491C1.71735 9.5912 1.60504 8.26595 1.38042 6.87331C1.1558 5.43576 0.886261 4.11051 0.571796 2.89757C0.25733 1.63971 0.100098 0.988319 0.100098 0.943396L0.100098 0.673853L20.9222 0.673853C25.6841 0.673853 29.5026 1.81941 32.3777 4.11051C35.2528 6.40162 36.6904 9.47889 36.6904 13.3423C36.6904 17.0261 35.4775 19.9461 33.0516 22.1024C30.6706 24.2138 27.4361 25.4942 23.3481 25.9434C27.4361 26.9766 30.4685 29.3351 32.4451 33.0189C33.1639 34.4115 33.995 36.0737 34.9384 38.0054C35.8818 39.9371 36.6006 41.4196 37.0947 42.4528C37.6338 43.4412 38.3077 44.5418 39.1163 45.7547C39.9249 46.9227 40.8009 47.9784 41.7443 48.9218V49.1914H31.03C29.6823 47.9335 27.4811 43.7332 24.4262 36.5903C22.0004 30.9299 18.9006 27.673 15.1271 26.8194H10.6122L10.6122 39.0162C10.6122 41.0377 11.1513 44.3396 12.2295 48.9218V49.1914H0.100098L0.100098 48.9218ZM10.6122 24.1914H17.6877C20.6976 24.1914 23.0112 23.3154 24.6284 21.5633C26.2906 19.8113 27.1217 17.2057 27.1217 13.7466C27.1217 10.3774 26.3355 7.77179 24.7632 5.92992C23.1908 4.04313 20.9447 3.09973 18.0246 3.09973L10.6122 3.09973L10.6122 24.1914ZM12.2295 26.6846C12.3643 26.6846 12.4766 26.6846 12.5664 26.6846C12.2969 26.6846 12.0947 26.7071 11.9599 26.752C12.0049 26.752 12.0947 26.7296 12.2295 26.6846Z" fill="white"/>
<path d="M44.6461 46.8329C45.0504 45.6199 45.4098 44.4969 45.7243 43.4636C46.0387 42.4304 46.3307 41.0827 46.6003 39.4205C46.9147 37.7583 47.072 36.2309 47.072 34.8383V10.9164C47.072 9.92812 46.9597 8.84995 46.735 7.68194C46.5104 6.51393 46.2633 5.54807 45.9938 4.78437C45.7243 3.97574 45.4323 3.16711 45.1178 2.35849C44.8483 1.54986 44.691 1.07817 44.6461 0.943396V0.673853L55.8995 0.673853L70.6569 38.0728L84.8078 0.673853L95.2526 0.673853V0.943396C95.2526 0.988319 95.0953 1.63971 94.7809 2.89757C94.4664 4.11051 94.1969 5.43576 93.9723 6.87331C93.7476 8.26595 93.6353 9.5912 93.6353 10.8491V39.0162C93.6353 40.274 93.7476 41.6217 93.9723 43.0593C94.1969 44.4519 94.4664 45.7772 94.7809 47.035C95.0953 48.248 95.2526 48.8769 95.2526 48.9218V49.1914H83.1906V48.9218C84.2687 44.3396 84.8078 41.0377 84.8078 39.0162V8.76011L69.5787 49.1914H66.479V49.124L65.8725 49.1914L50.0369 8.96227C49.992 9.36658 49.9695 10.018 49.9695 10.9164V34.8383C49.9695 36.2309 50.1043 37.7583 50.3739 39.4205C50.6883 41.0827 51.0028 42.4304 51.3173 43.4636C51.6317 44.4969 51.9911 45.6424 52.3954 46.9003C52.7997 48.1132 53.0244 48.7646 53.0693 48.8545V49.1914L43.9722 49.1914V48.8545C44.0172 48.7646 44.2418 48.0907 44.6461 46.8329Z" fill="white"/>
<path d="M106.378 6.9407C110.736 2.31357 116.261 0 122.955 0C127.447 0 132.726 1.03324 138.79 3.09973V13.9488H138.386C133.489 6.53639 128.615 2.83019 123.763 2.83019C119.81 2.83019 116.486 4.96406 113.79 9.2318C111.14 13.4546 109.815 18.6882 109.815 24.9326C109.815 31.177 111.185 36.4555 113.925 40.7682C116.71 45.0359 120.012 47.1698 123.831 47.1698C126.302 47.1698 128.795 46.1141 131.311 44.0027C133.871 41.8464 136.23 39.1509 138.386 35.9164H138.79V46.9003C132.501 48.9668 127.11 50 122.618 50C116.194 50 110.781 47.664 106.378 42.9919C101.976 38.3199 99.7742 32.3226 99.7742 25C99.7742 17.5876 101.976 11.5678 106.378 6.9407Z" fill="white"/>
</svg>
